<?xml version="1.0" standalone="no"?>
<!DOCTYPE svg PUBLIC "-//W3C//DTD SVG 20010904//EN"
 "http://www.w3.org/TR/2001/REC-SVG-20010904/DTD/svg10.dtd">
<svg version="1.0" xmlns="http://www.w3.org/2000/svg"
 width="1280.000000pt" height="1280.000000pt" viewBox="0 0 1280.000000 1280.000000"
 preserveAspectRatio="xMidYMid meet">
<metadata>
Created by potrace 1.15, written by Peter Selinger 2001-2017
</metadata>
<g transform="translate(0.000000,1280.000000) scale(0.100000,-0.100000)"
fill="#000000" stroke="none">
<path d="M11478 11895 c-3 -3 -61 -10 -129 -15 -68 -6 -158 -17 -199 -24 -41
-8 -115 -22 -165 -31 -167 -31 -378 -82 -560 -137 -55 -17 -127 -38 -160 -48
-59 -18 -280 -91 -445 -148 -166 -57 -723 -277 -865 -342 -11 -5 -128 -57
-260 -116 -132 -59 -276 -124 -319 -145 -80 -40 -104 -46 -122 -31 -5 5 -29
14 -54 21 -25 7 -90 34 -145 61 -128 60 -320 128 -410 145 -33 6 -61 12 -115
25 -296 73 -490 94 -625 71 -33 -6 -145 -13 -250 -16 -241 -7 -377 -20 -550
-55 -27 -5 -61 -12 -75 -14 -80 -13 -140 -27 -180 -41 -52 -19 -146 -46 -175
-49 -11 -2 -29 -7 -40 -13 -25 -13 -108 -33 -160 -39 -42 -5 -139 -31 -165
-45 -8 -4 -44 -15 -80 -24 -90 -22 -133 -41 -383 -166 -327 -162 -381 -205
-604 -471 -60 -71 -143 -197 -143 -216 0 -5 -16 -45 -36 -88 -20 -44 -44 -98
-55 -121 -11 -24 -24 -53 -29 -65 -5 -13 -34 -84 -65 -158 -31 -74 -71 -175
-89 -225 -33 -87 -56 -147 -112 -292 -27 -69 -55 -157 -79 -248 -41 -157 -86
-344 -90 -375 -3 -19 -11 -74 -19 -120 -7 -47 -14 -94 -14 -105 0 -11 -6 -87
-11 -169 -10 -134 -13 -151 -32 -164 -28 -20 -273 -215 -279 -223 -3 -3 -32
-28 -66 -55 -33 -27 -114 -94 -179 -149 -65 -55 -135 -113 -155 -130 -20 -16
-43 -37 -51 -45 -9 -8 -46 -42 -84 -75 -329 -287 -610 -550 -915 -855 -352
-352 -426 -431 -595 -630 -38 -45 -90 -106 -115 -135 -71 -82 -111 -133 -166
-209 -27 -39 -66 -92 -85 -117 -19 -26 -43 -59 -54 -73 -85 -116 -234 -392
-275 -512 -48 -137 -52 -323 -10 -409 58 -120 190 -207 379 -249 97 -22 138
-26 277 -26 90 0 212 6 271 14 59 8 137 18 173 21 57 6 239 42 450 88 36 8 97
24 135 35 39 11 86 23 105 27 19 4 73 19 120 35 47 15 112 35 145 45 53 15
224 72 425 140 36 13 85 30 110 40 247 95 587 230 655 260 28 12 70 30 94 41
l44 18 54 -59 c29 -33 53 -64 53 -68 0 -5 26 -35 57 -68 43 -45 67 -62 100
-71 34 -8 44 -16 49 -37 3 -14 24 -78 46 -141 63 -183 117 -363 138 -465 40
-187 121 -418 188 -535 25 -45 115 -160 162 -209 14 -15 48 -51 76 -81 28 -30
76 -79 107 -109 32 -29 60 -63 62 -75 14 -52 19 -345 12 -601 -4 -154 -7 -291
-7 -304 0 -54 -32 -189 -58 -241 -32 -64 -120 -137 -235 -193 -71 -35 -101
-46 -307 -107 -58 -17 -137 -42 -176 -55 -49 -16 -83 -22 -111 -18 -22 3 -49
1 -58 -5 -12 -6 -26 -5 -44 4 -32 17 -63 18 -79 2 -22 -22 -87 -38 -172 -44
-47 -3 -119 -14 -160 -24 -85 -21 -128 -31 -135 -30 -3 0 -19 -7 -35 -15 -21
-11 -30 -23 -30 -40 l0 -25 3175 0 3175 0 0 25 c0 24 -9 30 -37 26 -7 -1 -13
3 -13 8 0 10 -39 27 -53 23 -4 -1 -15 4 -22 12 -8 8 -23 12 -34 9 -10 -3 -22
0 -25 6 -9 14 -53 14 -61 0 -9 -13 -76 -3 -113 17 -20 11 -47 13 -102 8 -93
-7 -234 9 -440 51 -41 9 -105 19 -141 24 -36 4 -74 13 -85 18 -10 5 -46 16
-79 23 -68 16 -157 64 -196 107 -37 40 -70 96 -106 183 -27 64 -38 101 -60
210 -18 93 -26 205 -30 417 -3 215 -1 257 12 283 15 30 69 89 257 284 114 119
131 140 194 231 157 231 182 273 279 490 63 139 119 262 198 435 11 24 26 67
33 95 7 27 25 86 39 130 15 44 28 86 31 93 3 11 8 10 26 -2 29 -21 108 -20
150 0 29 14 138 131 138 148 0 4 8 19 19 34 10 15 46 75 81 133 34 58 89 137
121 175 38 45 57 75 53 86 -5 18 22 38 42 31 6 -2 35 23 65 55 56 60 121 170
159 269 13 32 31 74 40 93 29 56 81 190 95 245 7 28 28 122 46 210 31 150 32
171 30 343 -2 171 -3 186 -26 235 -44 93 -117 177 -153 177 -9 0 -22 8 -29 18
-7 12 -21 18 -41 16 -65 -4 -118 -17 -144 -35 -14 -11 -31 -19 -37 -19 -13 0
-15 26 -2 34 5 3 12 26 15 51 4 24 11 47 17 50 5 4 9 19 9 35 0 16 5 32 10 35
6 4 8 10 6 14 -3 4 4 48 15 97 22 102 40 195 45 239 2 17 8 57 14 90 11 66 14
93 29 236 19 180 11 694 -13 874 -21 148 -22 138 19 170 69 54 159 129 200
165 22 19 60 51 83 70 24 19 54 44 66 55 52 46 154 134 191 166 35 29 231 205
245 219 3 3 46 43 95 89 350 327 724 723 958 1014 124 154 289 388 349 497
169 302 213 435 213 645 0 121 -2 134 -27 185 -73 149 -225 239 -461 274 -102
15 -337 22 -349 11z m84 -293 c167 -46 274 -124 330 -240 30 -63 32 -74 32
-177 0 -76 -6 -128 -17 -166 -10 -31 -19 -65 -22 -75 -13 -66 -113 -274 -192
-402 -118 -192 -204 -307 -451 -601 -156 -186 -542 -582 -762 -781 -9 -8 -43
-40 -76 -70 -32 -30 -95 -87 -139 -125 -44 -39 -100 -88 -125 -111 -96 -87
-271 -234 -278 -234 -9 0 -32 59 -32 82 0 9 53 63 117 119 65 57 125 111 133
119 9 8 64 58 121 110 338 308 767 760 956 1009 215 282 373 557 415 720 56
218 49 332 -27 442 -132 189 -473 244 -1000 160 -111 -18 -177 -30 -196 -36
-11 -4 -68 -17 -127 -30 -93 -20 -223 -54 -367 -97 -140 -41 -474 -155 -625
-213 -52 -20 -117 -44 -145 -54 -56 -20 -262 -104 -312 -127 -17 -8 -34 -14
-37 -14 -3 0 -34 -13 -68 -28 -35 -16 -88 -39 -118 -51 l-56 -23 -38 36 -39
35 89 41 c151 70 249 112 404 175 63 26 129 53 145 60 17 8 73 30 125 50 52
20 104 40 115 44 50 21 154 61 195 75 70 23 160 55 215 76 46 17 310 100 430
135 194 57 432 115 595 144 273 48 288 50 525 47 197 -3 241 -6 307 -24z
m-881 -547 c113 -17 139 -24 207 -59 74 -38 127 -89 159 -154 25 -51 28 -68
28 -157 -1 -82 -6 -116 -30 -190 -77 -239 -272 -539 -584 -900 -125 -145 -666
-685 -674 -674 -10 14 -27 63 -27 76 0 8 64 79 143 157 351 346 640 704 781
967 121 227 158 425 103 551 -26 58 -101 134 -161 162 -96 45 -184 60 -366 60
-198 0 -378 -26 -635 -90 -77 -20 -158 -40 -180 -45 -94 -23 -479 -152 -679
-228 l-79 -30 -33 27 c-18 15 -31 31 -30 36 3 11 144 70 351 146 739 273 1360
399 1706 345z m-686 -419 c156 -24 246 -65 320 -147 54 -61 68 -101 68 -204
-1 -110 -29 -202 -109 -353 -99 -189 -304 -463 -506 -676 l-83 -88 -37 56
c-21 31 -38 66 -38 79 0 25 -10 44 -130 262 -107 194 -172 277 -397 505 -112
113 -211 224 -238 264 -25 38 -44 71 -42 72 5 5 330 113 392 130 190 52 332
81 480 98 148 18 213 18 320 2z m-6495 -2914 c0 -64 7 -55 -100 -142 -30 -25
-57 -47 -60 -51 -3 -3 -48 -41 -100 -84 -52 -43 -97 -81 -100 -84 -3 -3 -43
-40 -90 -81 -47 -41 -99 -88 -116 -105 -17 -16 -53 -50 -80 -75 -27 -25 -83
-76 -124 -114 -99 -91 -494 -481 -584 -576 -279 -295 -461 -507 -623 -722
-149 -199 -192 -265 -272 -419 -126 -243 -158 -398 -107 -522 58 -141 188
-219 418 -252 57 -8 140 -15 186 -15 108 0 354 25 482 50 25 5 74 14 110 20
36 7 85 18 110 25 25 7 63 16 85 20 45 7 130 31 380 106 202 60 349 111 607
208 75 28 139 51 142 51 10 0 65 -64 66 -77 0 -6 -34 -25 -75 -42 -102 -43
-350 -140 -400 -156 -22 -8 -78 -28 -125 -45 -47 -17 -101 -35 -120 -41 -19
-5 -51 -16 -70 -24 -19 -7 -82 -28 -140 -45 -58 -18 -123 -39 -145 -46 -22 -8
-67 -21 -100 -30 -33 -8 -100 -26 -150 -40 -103 -28 -234 -58 -350 -80 -44 -8
-111 -22 -149 -30 -38 -8 -156 -20 -262 -26 -403 -25 -626 26 -757 171 -42 46
-62 86 -83 166 -23 85 -17 157 26 330 34 132 197 438 317 595 6 8 27 35 45 60
155 206 227 297 314 390 28 30 91 100 141 155 178 197 471 484 772 755 52 47
102 92 111 100 32 30 146 129 186 162 68 55 219 182 224 188 4 6 300 244 412
332 153 121 148 120 148 40z m19 -312 c0 -39 -7 -50 -64 -99 -273 -232 -808
-766 -1000 -1000 -33 -40 -65 -78 -70 -85 -44 -48 -142 -176 -191 -246 -32
-47 -61 -87 -64 -90 -3 -3 -12 -16 -20 -30 -142 -243 -190 -373 -190 -510 0
-152 77 -244 255 -306 78 -27 85 -28 295 -28 158 0 236 5 295 17 44 8 123 23
175 33 52 9 136 28 185 41 50 13 106 28 125 33 19 5 62 16 95 25 109 30 110
30 144 -6 17 -19 31 -37 31 -40 1 -17 -451 -154 -660 -200 -304 -67 -419 -82
-625 -82 -222 -1 -274 8 -395 66 -68 33 -143 102 -164 152 -7 17 -19 59 -26
95 -11 57 -11 78 4 158 24 128 88 285 172 420 104 166 295 424 383 517 21 22
44 50 52 61 37 56 449 475 629 640 139 128 359 322 419 370 13 10 46 39 73 64
28 25 58 49 67 54 8 5 25 18 36 28 19 18 20 18 27 1 3 -10 7 -34 7 -53z m11
-281 c0 -38 6 -100 14 -137 29 -135 29 -151 -2 -120 -15 15 -32 19 -118 25
-65 5 -72 3 -101 -21 -72 -61 -125 -184 -134 -311 -11 -162 5 -445 29 -505 3
-8 7 -22 8 -30 2 -8 8 -33 14 -55 21 -76 53 -244 76 -393 2 -19 12 -62 21 -95
8 -34 16 -78 17 -97 1 -33 -1 -35 -39 -42 -22 -4 -67 -12 -100 -18 -413 -75
-707 -43 -816 90 -145 176 -53 477 276 903 33 43 69 91 80 105 11 15 42 50 68
78 26 28 58 65 70 81 40 54 373 389 496 499 30 27 71 64 90 82 19 17 39 32 43
32 4 0 8 -32 8 -71z"/>
</g>
</svg>
